<svg width="45" height="48" viewBox="0 0 45 48" fill="none" xmlns="http://www.w3.org/2000/svg">
<path d="M35.7466 13.1472C35.3362 12.4384 34.7575 11.8417 34.0616 11.41C33.3658 10.9782 32.5742 10.7246 31.7569 10.6716C30.9397 10.6187 30.122 10.7681 29.3762 11.1065C28.6304 11.4449 27.9796 11.9619 27.4813 12.6118L24.8029 7.97269C24.3838 7.2461 23.7877 6.63728 23.0702 6.20286C22.3526 5.76843 21.5369 5.5225 20.6988 5.48793C19.8607 5.45336 19.0275 5.63127 18.2766 6.00513C17.5257 6.37898 16.8815 6.93664 16.404 7.62624C15.6415 6.91099 14.6732 6.45384 13.6364 6.31957C12.5996 6.18529 11.5468 6.3807 10.6272 6.8781C9.70766 7.3755 8.96794 8.14967 8.51288 9.09092C8.05782 10.0322 7.91051 11.0927 8.0918 12.1224C7.33491 12.2987 6.62982 12.6498 6.03304 13.1476C5.43626 13.6454 4.96438 14.2761 4.65521 14.9891C4.34605 15.7021 4.20818 16.4776 4.25267 17.2535C4.29716 18.0294 4.52276 18.7841 4.9114 19.4571L5.29268 20.1176C4.48066 20.2243 3.70745 20.5295 3.04148 21.0062C2.37552 21.4829 1.83732 22.1164 1.47452 22.8506C1.11173 23.5849 0.93552 24.3973 0.961491 25.2158C0.987462 26.0344 1.21481 26.834 1.62342 27.5438L8.70545 39.8102C10.1572 42.3244 12.2937 44.3741 14.8659 45.7203C17.4381 47.0666 20.34 47.6538 23.2333 47.4137C26.1265 47.1735 28.8919 46.1159 31.207 44.364C33.522 42.6121 35.2914 40.2382 36.3087 37.5191C38.7928 35.15 40.4087 32.0148 40.8969 28.6169C41.3851 25.2191 40.7173 21.7558 39.0007 18.7831L35.7466 13.1472ZM19.5356 8.80339C19.9754 8.55013 20.4977 8.48166 20.9879 8.61299C21.4782 8.74432 21.8963 9.06473 22.1506 9.50394L26.2371 16.5818C25.232 16.8839 24.3473 17.4943 23.7081 18.3266L21.0295 13.6875C20.5616 12.8756 19.8725 12.2133 19.0427 11.7778L18.8352 11.418C18.5821 10.9782 18.5136 10.456 18.645 9.96586C18.7763 9.47571 19.0967 9.05765 19.5358 8.80339H19.5356ZM12.0371 9.59658C12.4768 9.34339 12.9991 9.27495 13.4892 9.40628C13.9794 9.53761 14.3974 9.85798 14.6517 10.2971L15.2935 11.4088C14.211 11.7314 13.2711 12.4137 12.6291 13.343C12.3039 13.0379 11.9389 12.7782 11.5442 12.5708L11.3365 12.2114C11.0833 11.7716 11.0148 11.2493 11.1461 10.7591C11.2775 10.2689 11.5979 9.85084 12.0371 9.59658V9.59658ZM28.0915 42.7627C25.277 44.3833 21.9345 44.8215 18.7974 43.9809C15.6603 43.1403 12.9847 41.0898 11.3576 38.279L4.27555 26.0127C4.02173 25.5731 3.95296 25.0506 4.08437 24.5602C4.21579 24.0698 4.53662 23.6517 4.97629 23.3979C5.41595 23.1441 5.93844 23.0753 6.42881 23.2068C6.91918 23.3382 7.33727 23.659 7.59109 24.0987L12.1848 32.0552C12.3893 32.4041 12.7235 32.6578 13.1144 32.7612C13.5054 32.8645 13.9213 32.8091 14.2715 32.6069C14.6216 32.4047 14.8776 32.0722 14.9836 31.682C15.0895 31.2918 15.0368 30.8755 14.837 30.524L7.56352 17.9258C7.43586 17.708 7.35253 17.4672 7.31834 17.2171C7.28414 16.967 7.29975 16.7126 7.36427 16.4685C7.42879 16.2245 7.54095 15.9956 7.69428 15.7951C7.84761 15.5946 8.03909 15.4264 8.2577 15.3002C8.47631 15.174 8.71772 15.0922 8.96804 15.0597C9.21836 15.0272 9.47265 15.0445 9.71625 15.1106C9.95986 15.1767 10.188 15.2904 10.3875 15.4451C10.587 15.5997 10.7539 15.7923 10.8787 16.0117L18.1521 28.6099C18.3566 28.9587 18.6908 29.2125 19.0817 29.3159C19.4726 29.4192 19.8886 29.3638 20.2387 29.1616C20.5889 28.9594 20.8449 28.6269 20.9509 28.2367C21.0568 27.8465 21.0041 27.4302 20.8042 27.0787L15.0621 17.1328C14.9364 16.9151 14.8548 16.6748 14.822 16.4256C14.7892 16.1764 14.8058 15.9232 14.8709 15.6804C14.9359 15.4376 15.0482 15.21 15.2012 15.0105C15.3542 14.8111 15.545 14.6438 15.7627 14.5181C15.9804 14.3924 16.2207 14.3109 16.4699 14.2781C16.7191 14.2452 16.9724 14.2618 17.2152 14.3269C17.7055 14.4583 18.1236 14.7791 18.3774 15.2188L26.4165 29.1428C26.621 29.4916 26.9551 29.7454 27.3461 29.8488C27.737 29.9521 28.1529 29.8966 28.5031 29.6945C28.8533 29.4923 29.1093 29.1598 29.2152 28.7696C29.3212 28.3793 29.2684 27.9631 29.0686 27.6115L26.0061 22.3073V22.3071C25.8804 22.0894 25.7988 21.8491 25.766 21.5999C25.7332 21.3507 25.7498 21.0974 25.8149 20.8546C25.9463 20.3643 26.2671 19.9462 26.7067 19.6924C27.1464 19.4386 27.6688 19.3698 28.1592 19.5012C28.402 19.5663 28.6296 19.6785 28.829 19.8315C29.0284 19.9845 29.1958 20.1753 29.3214 20.393L32.5753 26.029C34.1997 28.8426 34.6398 32.1863 33.799 35.3245C32.9581 38.4626 30.905 41.1382 28.0915 42.7627V42.7627ZM37.2139 30.6966C37.0052 28.5116 36.3277 26.3972 35.2277 24.4977L31.9736 18.8618C31.5058 18.0475 30.8157 17.3834 29.9841 16.9472L29.7793 16.5925C29.6516 16.3747 29.5683 16.1338 29.5341 15.8837C29.4999 15.6336 29.5155 15.3793 29.58 15.1352C29.6446 14.8912 29.7567 14.6623 29.91 14.4618C30.0634 14.2613 30.2549 14.0931 30.4735 13.9668C30.6921 13.8406 30.9335 13.7589 31.1838 13.7264C31.4341 13.6938 31.6884 13.7111 31.932 13.7773C32.1756 13.8434 32.4037 13.9571 32.6032 14.1117C32.8027 14.2664 32.9697 14.459 33.0944 14.6784L36.3483 20.3144C37.2434 21.8762 37.7848 23.6154 37.9344 25.4094C38.084 27.2033 37.838 29.0081 37.2139 30.6966V30.6966ZM30.5778 4.71897L31.3704 1.76098C31.4756 1.3687 31.7323 1.03426 32.084 0.831235C32.4358 0.62821 32.8538 0.573228 33.246 0.678386C33.6383 0.783544 33.9727 1.04023 34.1758 1.39197C34.3788 1.74371 34.4338 2.1617 34.3286 2.55398L33.536 5.51197C33.4839 5.70621 33.3941 5.88828 33.2717 6.04781C33.1493 6.20734 32.9966 6.34118 32.8224 6.44171C32.6483 6.54224 32.456 6.60748 32.2566 6.63371C32.0573 6.65993 31.8547 6.64663 31.6604 6.59456C31.4662 6.54249 31.2841 6.45268 31.1246 6.33024C30.9651 6.2078 30.8312 6.05514 30.7307 5.88098C30.5277 5.52924 30.4727 5.11125 30.5778 4.71897V4.71897ZM35.6223 6.48469L37.3791 3.97593C37.4935 3.80912 37.6399 3.66664 37.8098 3.55673C37.9797 3.44683 38.1696 3.37167 38.3687 3.33561C38.5678 3.29954 38.772 3.30329 38.9696 3.34662C39.1672 3.38996 39.3543 3.47203 39.52 3.58809C39.6858 3.70414 39.8268 3.85189 39.9351 4.02279C40.0434 4.19369 40.1167 4.38436 40.1509 4.58377C40.1851 4.78318 40.1794 4.98738 40.1341 5.18458C40.0889 5.38178 40.0051 5.56806 39.8874 5.73266L38.1307 8.24142C37.8961 8.56977 37.5413 8.79221 37.1435 8.86036C36.7457 8.9285 36.3371 8.83686 36.0065 8.60534C35.6759 8.37382 35.4501 8.02116 35.3782 7.62404C35.3062 7.22693 35.394 6.81746 35.6223 6.48469V6.48469ZM44.0241 10.621L41.5154 12.3777C41.1826 12.6061 40.7731 12.6938 40.376 12.6219C39.9789 12.5499 39.6262 12.3241 39.3947 11.9935C39.1632 11.663 39.0715 11.2544 39.1397 10.8566C39.2078 10.4588 39.4303 10.104 39.7586 9.86933L42.2674 8.1126C42.432 7.99497 42.6183 7.91112 42.8155 7.8659C43.0127 7.82068 43.2169 7.81499 43.4163 7.84915C43.6157 7.88332 43.8064 7.95666 43.9773 8.06494C44.1482 8.17322 44.2959 8.3143 44.412 8.48001C44.528 8.64573 44.6101 8.8328 44.6534 9.03042C44.6968 9.22804 44.7005 9.43229 44.6644 9.63137C44.6284 9.83044 44.5532 10.0204 44.4433 10.1903C44.3334 10.3601 44.1909 10.5065 44.0241 10.621V10.621Z" fill="#4855FF"/>
</svg>
